# xmcd
#
# Track frame offsets: 
#        150
#        10992
#        21697
#        30875
#        39770
#        48962
#        60387
#        70057
#        80972
#        92877
#        103445
#        115400
#        128145
#        140362
#        150445
#        160987
#        170827
#        181147
#        191180
#        201490
#
# Disc length: 2787 seconds
#
# Revision: 0
# Processed by: cddbd v1.5.2PL0 Copyright (c) Steve Scherf et al.
# Submitted via: ExactAudioCopy v0.99pb4
#
DISCID=1a0ae114
DTITLE=Various Artist - Stompin' 8
DYEAR=2001
DGENRE=
TTITLE0=Louis (Blues Boy) Jones - Come On Home
TTITLE1=Harmon "Hump" Jones - Lookin' for My Baby
TTITLE2="Fats" Jr. and The Skyscrapers - You Know I Love You Baby
TTITLE3=Artie Wilson - Tarzan
TTITLE4=Perch Welch - Nursery Rhyme Rock
TTITLE5=Willard Harris - Straightnen Up Baby
TTITLE6=Piano Slim - Lot of Shakin' Lot of Jivin'
TTITLE7=Sammy Johns and The Devilles - Making Tracks
TTITLE8=Homesick James - Set a Date
TTITLE9=Big Amos - Move with You Baby
TTITLE10=Elton Anderson - I Love You
TTITLE11=Crawford Brothers - I Ain't Guilty
TTITLE12=Mary Ann Fisher - Wild as You Can Be
TTITLE13=Eddie Daniels - Playin' Hide Go Seek
TTITLE14=Monroe Chapman - Come Dance with Rudy
TTITLE15=Phil Flowers - Twistin' Beat
TTITLE16=Eunice and Eddy - Daddy Please Come Home
TTITLE17=Floyd Dixon - Ooh Little Girl
TTITLE18=Mercy Baby - Pleadin'
TTITLE19=Volcano's - Oh Oh Mojo
EXTD=
EXTT0=
EXTT1=
EXTT2=
EXTT3=
EXTT4=
EXTT5=
EXTT6=
EXTT7=
EXTT8=
EXTT9=
EXTT10=
EXTT11=
EXTT12=
EXTT13=
EXTT14=
EXTT15=
EXTT16=
EXTT17=
EXTT18=
EXTT19=
PLAYORDER=
